<?xml version="1.0" standalone="no"?>
<!DOCTYPE svg PUBLIC "-//W3C//DTD SVG 20010904//EN"
 "http://www.w3.org/TR/2001/REC-SVG-20010904/DTD/svg10.dtd">
<svg version="1.0" xmlns="http://www.w3.org/2000/svg"
 width="260.000000pt" height="260.000000pt" viewBox="0 0 260.000000 260.000000"
 preserveAspectRatio="xMidYMid meet">
<metadata>
Created by potrace 1.14, written by Peter Selinger 2001-2017
</metadata>
<g transform="translate(0.000000,260.000000) scale(0.100000,-0.100000)"
fill="#000000" stroke="none">
<path d="M0 1300 l0 -1300 1300 0 1300 0 0 680 0 680 -25 0 c-15 0 -25 -6 -25
-14 0 -8 -5 -16 -11 -18 -6 -2 -16 -39 -22 -83 -6 -44 -14 -82 -18 -85 -3 -3
-9 -43 -13 -90 -9 -118 -47 -306 -66 -320 -3 -3 -11 -21 -17 -40 -6 -19 -11
-27 -12 -17 -1 10 -9 17 -21 17 -13 0 -20 7 -20 20 0 11 -4 20 -8 20 -11 0
-42 66 -42 90 0 11 -4 20 -10 20 -5 0 -10 7 -10 15 0 8 -4 15 -10 15 -5 0 -10
7 -10 15 0 19 -33 52 -57 57 -11 2 -19 13 -21 31 -3 23 -8 27 -35 27 -24 0
-28 3 -17 10 10 6 11 10 3 10 -7 0 -13 9 -13 20 0 13 -7 20 -19 20 -28 0 -52
11 -45 21 3 5 -13 9 -35 9 -37 0 -41 2 -41 25 0 21 -5 25 -30 25 -27 0 -30 3
-30 30 0 17 -6 48 -12 70 -10 31 -18 40 -35 40 -19 0 -23 6 -23 30 0 23 -4 30
-20 30 -11 0 -20 -4 -20 -8 0 -11 -60 -9 -78 2 -7 4 -19 3 -27 -4 -10 -9 -15
-7 -20 10 -6 18 -9 19 -23 8 -14 -12 -15 -9 -9 26 3 22 10 42 14 45 4 3 29 38
56 76 80 118 110 158 155 205 23 25 51 64 62 86 11 23 43 60 70 83 27 23 59
59 71 80 12 21 39 48 60 60 21 12 52 42 69 66 17 24 44 53 60 65 17 12 47 47
68 78 35 53 42 58 98 73 33 9 74 24 91 33 18 9 41 16 53 16 19 0 20 6 20 120
l0 120 -1300 0 -1300 0 0 -1300z"/>
</g>
</svg>
